# AST/ASF file generated using VICON BodyLanguage
# -----------------------------------------------
:version 1.10
:name VICON
:units
  mass 1.0
  length 0.45
  angle deg
:documentation
   .ast/.asf automatically generated from VICON data using
   VICON BodyBuilder and BodyLanguage model FoxedUp or BRILLIANT.MOD
:root
   order TX TY TZ RX RY RZ
   axis XYZ
   position 0 0 0  
   orientation 0 0 0 
:bonedata
  begin
     id 1 
     name lhipjoint
     direction 0.624716 -0.669793 0.401383 
     length 2.38238 
     axis 0 0 0  XYZ
  end
  begin
     id 2 
     name lfemur
     direction 0.34202 -0.939693 0  
     length 6.4574  
     axis 0 0 20  XYZ
    dof rx ry rz
    limits (-160.0 20.0)
           (-70.0 70.0)
           (-60.0 70.0)
  end
  begin
     id 3 
     name ltibia
     direction 0.34202 -0.939693 0   
     length 7.68739   
     axis 0 0 20   XYZ
    dof rx
    limits (-10.0 170.0)
  end
  begin
     id 4 
     name lfoot
     direction 0.0681309 -0.187188 0.979959   
     length 2.46615   
     axis -90 7.62852e-016 20   XYZ
    dof rx rz
    limits (-45.0 90.0)
           (-70.0 20.0)
  end
  begin
     id 5 
     name ltoes
     direction 1.53566e-011 -4.21819e-011 1   
     length 1.2376   
     axis -90 7.62852e-016 20   XYZ
    dof rx
    limits (-90.0 20.0)
  end
  begin
     id 6 
     name rhipjoint
     direction -0.644473 -0.655875 0.393043   
     length 2.43293  
     axis 0 0 0  XYZ 
  end
  begin
     id 7 
     name rfemur
     direction -0.34202 -0.939693 0   
     length 6.7025   
     axis 0 0 -20   XYZ
    dof rx ry rz
    limits (-160.0 20.0)
           (-70.0 70.0)
           (-70.0 60.0)
  end
  begin
     id 8 
     name rtibia
     direction -0.34202 -0.939693 0   
     length 7.80547   
     axis 0 0 -20   XYZ
    dof rx
    limits (-10.0 170.0)
 end
 begin
     id 9 
     name rfoot
     direction -0.0756734 -0.207911 0.975216   
     length 2.40315  
     axis -90 -7.62852e-016 -20   XYZ
    dof rx rz
    limits (-45.0 90.0)
           (-20.0 70.0)
  end
  begin
     id 10 
     name rtoes
     direction -1.5353e-011 -4.21879e-011 1   
     length 1.20477   
     axis -90 -7.62852e-016 -20   XYZ
    dof rx
    limits (-90.0 20.0)
  end
  begin
     id 11 
     name lowerback
     direction 0.0160353 0.987463 -0.157037   
     length 2.18572   
     axis 0 0 0   XYZ
    dof rx ry rz
    limits (-20.0 45.0)
           (-30.0 30.0)
           (-30.0 30.0)
  end
  begin
     id 12 
     name upperback
     direction -0.00499661 0.999756 0.0215076   
     length 2.18016   
     axis 0 0 0   XYZ
    dof rx ry rz
    limits (-20.0 45.0)
           (-30.0 30.0)
           (-30.0 30.0)
  end
  begin
     id 13 
     name thorax
     direction -0.00921346 0.995333 0.0960619   
     length 2.24923   
     axis 0 0 0   XYZ
    dof rx ry rz
    limits (-20.0 45.0)
           (-30.0 30.0)
           (-30.0 30.0)
  end
  begin
     id 14 
     name lowerneck
     direction 0.0274184 0.991181 0.12965   
     length 1.70911   
     axis 0 0 0   XYZ
    dof rx ry rz
    limits (-20.0 45.0)
           (-30.0 30.0)
           (-30.0 30.0)
  end
  begin
     id 15 
     name upperneck
     direction 0.0015627 0.999959 -0.00893559   
     length 1.69312   
     axis 0 0 0   XYZ
    dof rx ry rz
    limits (-20.0 45.0)
           (-30.0 30.0)
           (-30.0 30.0)
  end
  begin
     id 16
     name head
     direction -0.00230242 0.999856 -0.0168327  
     length 1.80241  
     axis 0 0 0   XYZ
    dof rx ry rz
    limits (-20.0 45.0)
           (-30.0 30.0)
           (-30.0 30.0)
  end
  begin
     id 17 
     name lclavicle
     direction 0.955523 0.290741 -0.0494489  
     length 3.84275  
     axis 0 0 0   XYZ
    dof ry rz
    limits (-20.0 10.0)
           (0.0 20.0)
  end
  begin
     id 18 
     name lhumerus
     direction 1 -4.48967e-011 -3.18382e-028   
     length 5.17714   
     axis 180 -30 -90   XYZ
    dof rx ry rz
    limits (-60.0 90.0)
           (-90.0 90.0)
           (-90.0 90.0)
  end
  begin
     id 19
     name lradius
     direction 1 -4.48968e-011 -2.22911e-027   
     length 3.43679   
     axis 180 -30 -90   XYZ
    dof rx
    limits (-10.0 170.0)
  end
  begin
     id 20
     name lwrist
     direction 1 -4.48951e-011 -6.32245e-027   
     length 1.7184   
     axis 3.57107e-015 90 90   XYZ
    dof ry
    limits (-180.0 0.0)
 end
  begin
     id 21 
     name lhand
     direction 1 -4.48924e-011 -1.26431e-026   
     length 0.573117   
     axis 8.06912e-015 90 90   XYZ
    dof rx rz
    limits (-90.0 90.0)
           (-45.0 45.0)
  end
  begin
     id 22 
     name lfingers
     direction 1 -4.49001e-011 -2.52965e-026   
     length 0.462062   
     axis 1.61381e-014 90 90   XYZ
    dof rx
    limits (0.0 90.0)
  end
  begin
     id 23
     name lthumb
     direction 0.707107 -6.35008e-011 0.707107   
     length 0.663431   
     axis -90 45 -1.62303e-014   XYZ
    dof rx rz
    limits (-45.0 45.0)
           (-45.0 45.0)
  end
  begin
     id 24 
     name rclavicle
     direction -0.963917 0.256881 -0.0698287   
     length 3.73057  
     axis 0 0 0   XYZ 
    dof ry rz
    limits (-10.0 20.0)
           (-20.0 0.0)
  end
  begin
     id 25 
     name rhumerus
     direction -1 -4.48962e-011 -2.73982e-027  
     length 5.23908   
     axis 180 30 90   XYZ
    dof rx ry rz
    limits (-90.0 60.0)
           (-90.0 90.0)
           (-90.0 90.0)
  end
  begin
     id 26 
     name rradius
     direction -1 -4.48968e-011 -4.33218e-027   
     length 3.46485   
     axis 180 30 90   XYZ
    dof rx
    limits (-10.0 170.0)
  end
  begin
     id 27 
     name rwrist
     direction -1 -4.48989e-011 -6.32372e-027   
     length 1.73243   
     axis 3.57107e-015 -90 -90   XYZ
    dof ry
    limits (-180.0 0.0)
  end
  begin
     id 28
     name rhand
     direction -1 -4.48948e-011 -1.26448e-026   
     length 0.608752   
     axis 8.06912e-015 -90 -90   XYZ
    dof rx rz
    limits (-90.0 90.0)
           (-45.0 45.0)
  end
  begin
     id 29
     name rfingers
     direction -1 -4.48962e-011 -2.52913e-026   
     length 0.490792   
     axis 1.61381e-014 -90 -90   XYZ
    dof rx
    limits (0.0 90.0)
  end
  begin
     id 30
     name rthumb
     direction -0.707107 -6.34878e-011 0.707107   
     length 0.704682   
     axis -90 -45 1.62303e-014   XYZ
    dof rx rz
    limits (-45.0 45.0)
           (-45.0 45.0)
  end
:hierarchy
  begin
    root lhipjoint rhipjoint lowerback
    lhipjoint lfemur
    lfemur ltibia
    ltibia lfoot
    lfoot ltoes
    rhipjoint rfemur
    rfemur rtibia
    rtibia rfoot
    rfoot rtoes
    lowerback upperback
    upperback thorax
    thorax lowerneck lclavicle rclavicle
    lowerneck upperneck
    upperneck head
    lclavicle lhumerus
    lhumerus lradius
    lradius lwrist
    lwrist lhand lthumb
    lhand lfingers
    rclavicle rhumerus
    rhumerus rradius
    rradius rwrist
    rwrist rhand rthumb
    rhand rfingers
  end

#!OML:ASF G:\JayActor3\Patient Classification 1\Patient 1\Session 6\male.ASF
:FULLY-SPECIFIED
:DEGREES
305
root 37.1461 15.6308 5.14082 166.219 -53.6998 -167.231
lowerback 3.2582 2.86586 8.23929
upperback 10.8827 2.78238 1.18905
thorax 10.2321 1.71743 -3.19267
lowerneck 14.2514 10.2145 7.50766
upperneck -16.8363 14.0666 -8.46186
head -6.26527 7.06539 -5.10847
rclavicle 1.1127e-013 -2.92213e-014
rhumerus -15.6313 1.96968 -84.7369
rradius 41.5243
rwrist -5.47766
rhand -25.9733 -10.709
rfingers 7.12502
rthumb 0.571565 -40.688
lclavicle 1.1127e-013 -2.92213e-014
lhumerus -39.0122 25.757 70.937
lradius 12.9023
lwrist 18.5112
lhand -9.15068 15.0692
lfingers 7.12502
lthumb 16.8014 44.3623
rfemur 8.55608 -1.94107 29.1604
rtibia 36.4985
rfoot -22.0664 -7.5803
rtoes -14.1253
lfemur -27.9976 9.30558 -13.706
ltibia 38.5807
lfoot -9.68586 -0.112947
ltoes -0.481594
306
root 37.0291 15.6255 5.07272 166.354 -53.2488 -167.563
lowerback 3.35596 2.86366 8.04067
upperback 10.9569 2.80705 0.88004
thorax 10.2642 1.73042 -3.41649
lowerneck 14.195 10.3583 7.37126
upperneck -16.8948 14.2911 -8.10668
head -6.29557 7.14416 -4.99215
rclavicle 2.73329e-014 -3.57812e-015
rhumerus -15.532 2.60686 -85.0551
rradius 41.8495
rwrist -5.67301
rhand -26.3789 -10.7641
rfingers 7.12502
rthumb 0.17979 -40.7438
lclavicle 2.73329e-014 -3.57812e-015
lhumerus -38.2564 25.6808 70.8786
lradius 12.8018
lwrist 18.5712
lhand -9.16727 15.2198
lfingers 7.12502
lthumb 16.7854 44.5143
rfemur 7.9068 -2.47811 28.5227
rtibia 38.596
rfoot -20.8616 -7.05989
rtoes -13.6837
lfemur -27.5358 9.72267 -13.7287
ltibia 39.2572
lfoot -10.154 -0.0578441
ltoes 0.0123305
307
root 36.9102 15.62 5.00648 166.426 -52.8031 -167.851
lowerback 3.46031 2.84685 7.89391
upperback 11.0354 2.8076 0.577433
thorax 10.2993 1.73499 -3.66428
lowerneck 14.1546 10.5014 7.24333
upperneck -16.9596 14.5143 -7.77193
head -6.32942 7.2235 -4.88527
rclavicle -6.87795e-014 4.69132e-014
rhumerus -15.427 3.34833 -85.3443
rradius 42.1207
rwrist -5.82549
rhand -26.5957 -10.8104
rfingers 7.12502
rthumb -0.0295587 -40.7901
lclavicle -6.87795e-014 4.69132e-014
lhumerus -37.4376 25.3299 71.0014
lradius 12.8597
lwrist 18.9172
lhand -9.06064 15.4301
lfingers 7.12502
lthumb 16.8881 44.7158
rfemur 7.14778 -3.08618 27.8513
rtibia 40.8586
rfoot -19.415 -6.68609
rtoes -12.9437
lfemur -26.9961 10.1628 -13.7358
ltibia 39.8803
lfoot -10.7102 0.0285204
ltoes 0.256469
308
root 36.7903 15.6154 4.94135 166.472 -52.3729 -168.141
lowerback 3.58032 2.81731 7.75538
upperback 11.1253 2.78807 0.273927
thorax 10.3372 1.72965 -3.9199
lowerneck 14.1004 10.6403 7.14324
upperneck -17.0209 14.7322 -7.46651
head -6.35671 7.30114 -4.79016
rclavicle -3.57812e-014 5.96354e-015
rhumerus -15.31 4.15488 -85.6065
rradius 42.3625
rwrist -5.89787
rhand -26.5977 -10.8446
rfingers 7.12502
rthumb -0.0315498 -40.8243
lclavicle -3.57812e-014 5.96354e-015
lhumerus -36.5513 24.6774 71.303
lradius 13.0935
lwrist 19.5666
lhand -8.83902 15.7006
lfingers 7.12502
lthumb 17.1014 44.9679
rfemur 6.29177 -3.71875 27.149
rtibia 43.2619
rfoot -17.7633 -6.51835
rtoes -11.94
lfemur -26.4015 10.595 -13.737
ltibia 40.4442
lfoot -11.2992 0.0907085
ltoes 0.653827
309
root 36.6706 15.6096 4.87687 166.519 -51.9633 -168.465
lowerback 3.72585 2.78069 7.58456
upperback 11.2242 2.7581 -0.0292571
thorax 10.3662 1.71499 -4.15941
lowerneck 14.0429 10.7711 7.08264
upperneck -17.0847 14.9415 -7.19465
head -6.37981 7.37515 -4.71047
rclavicle 8.34896e-015 -3.85642e-014
rhumerus -15.2038 4.98667 -85.8356
rradius 42.6092
rwrist -5.87934
rhand -26.3548 -10.8757
rfingers 7.12502
rthumb 0.203108 -40.8553
lclavicle 8.34896e-015 -3.85642e-014
lhumerus -35.6269 23.7875 71.7134
lradius 13.48
lwrist 20.4336
lhand -8.51762 16.0049
lfingers 7.12502
lthumb 17.4107 45.2451
rfemur 5.35365 -4.33088 26.4261
rtibia 45.787
rfoot -15.9786 -6.57539
rtoes -10.6576
lfemur -25.7523 11.04 -13.7602
ltibia 40.9536
lfoot -11.9107 0.108436
ltoes 0.964356
310
root 36.5522 15.602 4.81282 166.574 -51.5795 -168.833
lowerback 3.90122 2.74451 7.36858
upperback 11.3452 2.7257 -0.333161
thorax 10.3993 1.69371 -4.37606
lowerneck 13.94 10.8868 7.07085
upperneck -17.1499 15.1309 -6.95772
head -6.39097 7.43939 -4.64391
rclavicle 6.12257e-014 -1.43125e-014
rhumerus -15.0903 5.78198 -86.0306
rradius 42.8813
rwrist -5.74822
rhand -25.8822 -10.894
rfingers 7.12502
rthumb 0.65954 -40.8728
lclavicle 6.12257e-014 -1.43125e-014
lhumerus -34.6432 22.7548 72.166
lradius 13.9804
lwrist 21.4122
lhand -8.12373 16.3283
lfingers 7.12502
lthumb 17.7898 45.5346
rfemur 4.35291 -4.8965 25.6979
rtibia 48.4093
rfoot -14.1276 -6.8602
rtoes -9.1538
lfemur -25.0595 11.498 -13.811
ltibia 41.414
lfoot -12.5316 0.0739679
ltoes 1.20869
311
root 36.4356 15.592 4.74893 166.638 -51.2245 -169.248
lowerback 4.10578 2.70892 7.09177
upperback 11.4828 2.69119 -0.631427
thorax 10.4286 1.66377 -4.55419
lowerneck 13.8447 10.988 7.09587
upperneck -17.2355 15.3031 -6.75272
head -6.40602 7.4952 -4.59291
rclavicle 2.06736e-014 -2.62396e-014
rhumerus -14.9966 6.52118 -86.1897
rradius 43.2007
rwrist -5.517
rhand -25.233 -10.8864
rfingers 7.12502
rthumb 1.2865 -40.8623
lclavicle 2.06736e-014 -2.62396e-014
lhumerus -33.6388 21.6492 72.6071
lradius 14.5812
lwrist 22.4373
lhand -7.70247 16.6541
lfingers 7.12502
lthumb 18.1951 45.8231
rfemur 3.313 -5.39897 24.9748
rtibia 51.1064
rfoot -12.2992 -7.32093
rtoes -7.28114
lfemur -24.3317 11.9646 -13.891
ltibia 41.8326
lfoot -13.1497 -0.00688357
ltoes 1.39837
